# xmcd CD database file generated by Grip 3.2.0
# 
# Track frame offsets:
#       183
#       25295
#       43670
#       59713
# 
# Disc length: 1019 seconds
# 
# Revision: 2
# Processed by: cddbd v1.5.2PL0 Copyright (c) Steve Scherf et al.
# Submitted via: Grip 3.2.0
# 
DISCID=3403f904
DTITLE=Bonnie Raitt - I Can't Make You Love Me
DYEAR=1991
DGENRE=Blues
TTITLE0=I Can't Make You Love Me
TTITLE1=Right Place, Wrong Time (with B.B. King)
TTITLE2=Good Man, Good Woman
TTITLE3=Cry On My Shoulder
EXTD=YEAR: 1991 ID3G: 0
EXTT0=
EXTT1=
EXTT2=
EXTT3=
PLAYORDER=
